<?xml version="1.0" encoding="UTF-8"?>
<!DOCTYPE svg PUBLIC "-//W3C//DTD SVG 1.1//EN" "http://www.w3.org/Graphics/SVG/1.1/DTD/svg11.dtd">
<svg xmlns="http://www.w3.org/2000/svg" version="1.1" width="512px" height="512px" style="shape-rendering:geometricPrecision; text-rendering:geometricPrecision; image-rendering:optimizeQuality; fill-rule:evenodd; clip-rule:evenodd" xmlns:xlink="http://www.w3.org/1999/xlink">
<g><path style="opacity:0.961" fill="#000000" d="M 50.5,-0.5 C 57.8333,-0.5 65.1667,-0.5 72.5,-0.5C 101.553,6.55647 118.553,24.8898 123.5,54.5C 144.735,59.2344 157.902,72.2344 163,93.5C 163.667,98.5 163.667,103.5 163,108.5C 161.833,110.333 160.333,111.833 158.5,113C 128.5,113.667 98.5,113.667 68.5,113C 64.092,110.241 62.4254,106.241 63.5,101C 65.645,76.3469 78.645,60.5136 102.5,53.5C 94.882,28.8522 78.2153,18.0189 52.5,21C 32.5169,27.1223 21.6836,40.6223 20,61.5C 19.5,123.166 19.3333,184.832 19.5,246.5C 73.4715,245.679 127.471,245.179 181.5,245C 193.892,201.787 222.225,184.287 266.5,192.5C 285.657,150.255 317.99,134.088 363.5,144C 384.606,150.939 399.939,164.439 409.5,184.5C 410.167,184.833 410.833,185.167 411.5,185.5C 439.105,176.19 462.272,182.523 481,204.5C 489.602,217.162 493.268,231.162 492,246.5C 501.843,250.506 508.343,257.506 511.5,267.5C 511.5,272.833 511.5,278.167 511.5,283.5C 508.343,293.494 501.843,300.494 492,304.5C 491.667,333.5 491.333,362.5 491,391.5C 482.685,435.648 456.518,461.982 412.5,470.5C 417.141,490.439 410.141,504.105 391.5,511.5C 386.167,511.5 380.833,511.5 375.5,511.5C 365.939,507.774 359.106,501.107 355,491.5C 352.853,484.895 351.019,478.228 349.5,471.5C 286.833,471.5 224.167,471.5 161.5,471.5C 159.433,481.201 156.266,490.534 152,499.5C 147.695,505.328 142.195,509.328 135.5,511.5C 130.167,511.5 124.833,511.5 119.5,511.5C 100.687,504.214 93.6874,490.548 98.5,470.5C 54.4818,461.982 28.3152,435.648 20,391.5C 19.6667,362.5 19.3333,333.5 19,304.5C 9.1566,300.494 2.6566,293.494 -0.5,283.5C -0.5,205.833 -0.5,128.167 -0.5,50.5C 6.16667,23.1667 23.1667,6.16667 50.5,-0.5 Z M 106.5,74.5 C 123.023,72.0841 134.357,78.4174 140.5,93.5C 122.5,93.5 104.5,93.5 86.5,93.5C 89.9253,83.7411 96.592,77.4077 106.5,74.5 Z M 331.5,161.5 C 364.91,160.107 386.077,175.441 395,207.5C 398.298,212.22 402.798,213.72 408.5,212C 422.138,201.379 436.805,199.713 452.5,207C 466.431,216.033 472.431,228.866 470.5,245.5C 417.833,245.5 365.167,245.5 312.5,245.5C 309.466,227.422 300.8,212.756 286.5,201.5C 294.038,179.621 309.038,166.288 331.5,161.5 Z M 241.5,210.5 C 260.604,209.469 275.438,216.803 286,232.5C 288.602,236.474 290.102,240.807 290.5,245.5C 261.492,245.833 232.492,245.5 203.5,244.5C 209.621,225.706 222.288,214.372 241.5,210.5 Z M 25.5,266.5 C 178.834,266.333 332.167,266.5 485.5,267C 491.329,271.633 491.996,276.967 487.5,283C 485.913,283.862 484.246,284.529 482.5,285C 420.5,285.333 358.5,285.667 296.5,286C 294.376,287.122 292.543,288.622 291,290.5C 288.3,298.946 291.133,304.113 299.5,306C 356.832,306.5 414.166,306.667 471.5,306.5C 471.667,330.169 471.5,353.836 471,377.5C 468.762,412.4 451.262,435.9 418.5,448C 411.953,449.777 405.286,450.777 398.5,451C 303.167,451.667 207.833,451.667 112.5,451C 75.9469,448.446 52.4469,429.613 42,394.5C 40.9484,388.883 40.2818,383.216 40,377.5C 39.5,353.836 39.3334,330.169 39.5,306.5C 96.8343,306.667 154.168,306.5 211.5,306C 219.749,304.035 222.582,298.868 220,290.5C 218.457,288.622 216.624,287.122 214.5,286C 152.5,285.667 90.5,285.333 28.5,285C 21.4745,283.122 18.9745,278.622 21,271.5C 22.3657,269.638 23.8657,267.972 25.5,266.5 Z M 120.5,471.5 C 126.833,471.5 133.167,471.5 139.5,471.5C 138.306,476.582 136.806,481.582 135,486.5C 131.229,490.788 126.729,491.621 121.5,489C 120.299,488.097 119.465,486.931 119,485.5C 118.349,480.707 118.849,476.04 120.5,471.5 Z M 371.5,471.5 C 377.833,471.5 384.167,471.5 390.5,471.5C 392.151,476.04 392.651,480.707 392,485.5C 389.103,490.155 384.937,491.655 379.5,490C 378.333,488.833 377.167,487.667 376,486.5C 374.194,481.582 372.694,476.582 371.5,471.5 Z"/></g>
<g><path style="opacity:0.935" fill="#000000" d="M 336.5,-0.5 C 339.5,-0.5 342.5,-0.5 345.5,-0.5C 348.995,1.80527 350.995,5.13861 351.5,9.5C 349.647,14.8447 347.147,19.8447 344,24.5C 343.333,27.1667 343.333,29.8333 344,32.5C 349.072,38.9643 353.406,45.9643 357,53.5C 361.854,69.1639 358.354,82.6639 346.5,94C 334.559,97.3957 329.392,92.8957 331,80.5C 337.676,74.0989 339.343,66.7656 336,58.5C 320.839,42.9326 318.505,25.5993 329,6.5C 331.396,3.93337 333.896,1.60004 336.5,-0.5 Z"/></g>
<g><path style="opacity:0.933" fill="#000000" d="M 259.5,36.5 C 268.307,37.1367 272.141,41.8033 271,50.5C 269.032,53.8131 267.032,57.1464 265,60.5C 263.087,65.2898 263.42,69.9565 266,74.5C 282.953,92.6389 283.786,111.472 268.5,131C 256.803,135.96 250.969,132.127 251,119.5C 252.752,116.328 254.752,113.328 257,110.5C 259.122,105.348 258.789,100.348 256,95.5C 241.764,81.0827 239.097,64.7493 248,46.5C 250.818,41.8388 254.651,38.5055 259.5,36.5 Z"/></g>
<g><path style="opacity:0.933" fill="#000000" d="M 418.5,36.5 C 428.12,37.077 431.954,42.077 430,51.5C 424.376,57.0414 422.376,63.7081 424,71.5C 428.496,77.1559 432.496,83.1559 436,89.5C 441.574,105.698 438.407,119.864 426.5,132C 417.337,135.585 411.67,132.585 409.5,123C 411.546,117.948 414.046,113.115 417,108.5C 417.667,105.5 417.667,102.5 417,99.5C 413,93.5 409,87.5 405,81.5C 399.378,65.5372 402.211,51.3705 413.5,39C 415.315,38.2432 416.981,37.4098 418.5,36.5 Z"/></g>
<g><path style="opacity:0.948" fill="#000000" d="M 68.5,133.5 C 74.5199,132.22 79.3533,133.887 83,138.5C 83.6667,146.167 83.6667,153.833 83,161.5C 80.0812,167.025 75.5812,168.858 69.5,167C 67,165.833 65.1667,164 64,161.5C 63.3333,153.833 63.3333,146.167 64,138.5C 65.3657,136.638 66.8657,134.972 68.5,133.5 Z"/></g>
<g><path style="opacity:0.948" fill="#000000" d="M 108.5,133.5 C 114.52,132.22 119.353,133.887 123,138.5C 123.667,146.167 123.667,153.833 123,161.5C 120.081,167.025 115.581,168.858 109.5,167C 107,165.833 105.167,164 104,161.5C 103.333,153.833 103.333,146.167 104,138.5C 105.366,136.638 106.866,134.972 108.5,133.5 Z"/></g>
<g><path style="opacity:0.948" fill="#000000" d="M 148.5,133.5 C 154.52,132.22 159.353,133.887 163,138.5C 163.667,146.167 163.667,153.833 163,161.5C 160.081,167.025 155.581,168.858 149.5,167C 147,165.833 145.167,164 144,161.5C 143.333,153.833 143.333,146.167 144,138.5C 145.366,136.638 146.866,134.972 148.5,133.5 Z"/></g>
<g><path style="opacity:0.943" fill="#000000" d="M 70.5,191.5 C 76.0939,190.743 80.2605,192.743 83,197.5C 83.6667,205.167 83.6667,212.833 83,220.5C 78.5181,226.328 73.0181,227.495 66.5,224C 65.2986,223.097 64.4652,221.931 64,220.5C 63.3333,212.833 63.3333,205.167 64,197.5C 65.4361,194.558 67.6028,192.558 70.5,191.5 Z"/></g>
<g><path style="opacity:0.943" fill="#000000" d="M 110.5,191.5 C 116.094,190.743 120.261,192.743 123,197.5C 123.667,205.167 123.667,212.833 123,220.5C 118.518,226.328 113.018,227.495 106.5,224C 105.299,223.097 104.465,221.931 104,220.5C 103.333,212.833 103.333,205.167 104,197.5C 105.436,194.558 107.603,192.558 110.5,191.5 Z"/></g>
<g><path style="opacity:0.943" fill="#000000" d="M 150.5,191.5 C 156.094,190.743 160.261,192.743 163,197.5C 163.667,205.167 163.667,212.833 163,220.5C 158.518,226.328 153.018,227.495 146.5,224C 145.299,223.097 144.465,221.931 144,220.5C 143.333,212.833 143.333,205.167 144,197.5C 145.436,194.558 147.603,192.558 150.5,191.5 Z"/></g>
<g><path style="opacity:0.907" fill="#000000" d="M 251.5,285.5 C 265.443,285.604 269.11,291.77 262.5,304C 249.632,308.64 244.132,304.14 246,290.5C 247.73,288.598 249.563,286.931 251.5,285.5 Z"/></g>
</svg>
