<?xml version="1.0" encoding="UTF-8"?>
<!DOCTYPE svg PUBLIC "-//W3C//DTD SVG 1.1//EN" "http://www.w3.org/Graphics/SVG/1.1/DTD/svg11.dtd">
<svg xmlns="http://www.w3.org/2000/svg" version="1.1" width="512px" height="512px" style="shape-rendering:geometricPrecision; text-rendering:geometricPrecision; image-rendering:optimizeQuality; fill-rule:evenodd; clip-rule:evenodd" xmlns:xlink="http://www.w3.org/1999/xlink">
<g><path style="opacity:0.928" fill="#000000" d="M 244.5,6.5 C 295.575,4.63007 338.075,22.6301 372,60.5C 409.576,109.537 416.909,162.87 394,220.5C 370.931,268.059 333.431,297.059 281.5,307.5C 281.333,339.502 281.5,371.502 282,403.5C 286.249,421.524 296.749,434.357 313.5,442C 325.91,444.803 337.91,448.803 349.5,454C 363.064,461.58 365.397,471.58 356.5,484C 350.004,489.248 342.67,492.915 334.5,495C 281.834,507.667 229.168,507.667 176.5,495C 168.448,492.657 161.114,488.99 154.5,484C 145.603,471.58 147.936,461.58 161.5,454C 173.176,449.08 185.176,445.08 197.5,442C 214.733,434.712 225.233,421.879 229,403.5C 229.5,371.502 229.667,339.502 229.5,307.5C 164.325,293.493 123.492,254.16 107,189.5C 96.7513,130.909 113.585,81.7427 157.5,42C 182.898,21.3001 211.898,9.46672 244.5,6.5 Z M 245.5,22.5 C 307.752,21.6405 352.586,48.9739 380,104.5C 400.849,159.917 391.516,209.584 352,253.5C 311.211,291.487 264.044,302.32 210.5,286C 153.695,262.654 123.362,220.154 119.5,158.5C 122.459,99.7097 150.459,57.8763 203.5,33C 217.158,27.5855 231.158,24.0855 245.5,22.5 Z M 283.5,77.5 C 308.382,76.2501 326.549,86.5835 338,108.5C 341.945,118.883 342.445,129.383 339.5,140C 331.096,137.573 322.429,136.073 313.5,135.5C 306.411,135.738 299.577,137.071 293,139.5C 283.706,124.6 270.206,117.1 252.5,117C 254.912,102.498 261.912,90.831 273.5,82C 276.893,80.38 280.226,78.88 283.5,77.5 Z M 194.5,95.5 C 195.833,95.5 197.167,95.5 198.5,95.5C 200.608,111.884 207.608,125.717 219.5,137C 211.539,152.045 211.539,167.045 219.5,182C 206.558,187.988 193.558,187.988 180.5,182C 171.682,176.883 165.848,169.383 163,159.5C 156.731,129.706 167.231,108.372 194.5,95.5 Z M 251.5,133.5 C 269.364,133.531 279.697,142.364 282.5,160C 278.984,179.913 267.317,188.247 247.5,185C 232.639,178.466 227.139,167.299 231,151.5C 234.621,141.705 241.454,135.705 251.5,133.5 Z M 293.5,178.5 C 308.189,189.549 314.356,204.216 312,222.5C 304.457,240.549 290.957,251.382 271.5,255C 255.026,257.509 241.026,252.842 229.5,241C 241.967,230.89 249.967,218.056 253.5,202.5C 271.903,202.643 285.237,194.643 293.5,178.5 Z M 245.5,309.5 C 252.167,309.5 258.833,309.5 265.5,309.5C 265.333,341.502 265.5,373.502 266,405.5C 270.939,431.714 285.939,449.38 311,458.5C 318.9,460.433 326.733,462.6 334.5,465C 338.532,466.678 342.199,468.844 345.5,471.5C 342.497,474.673 338.83,476.839 334.5,478C 308.698,485.33 282.365,488.83 255.5,488.5C 227.525,489.07 200.192,485.237 173.5,477C 170.274,475.894 167.607,474.061 165.5,471.5C 169.686,468.238 174.353,465.738 179.5,464C 199.965,461.352 217.131,452.519 231,437.5C 238.384,428.061 243.051,417.395 245,405.5C 245.5,373.502 245.667,341.502 245.5,309.5 Z"/></g>
<g><path style="opacity:0.93" fill="#000000" d="M 281.5,61.5 C 309.497,59.5848 331.664,69.9181 348,92.5C 359.534,112.331 360.867,132.664 352,153.5C 349.549,159.089 345.383,160.922 339.5,159C 325.907,151.112 311.907,149.945 297.5,155.5C 298.189,157.444 298.689,159.444 299,161.5C 323.189,178.072 332.523,200.738 327,229.5C 316.878,252.499 299.378,266.332 274.5,271C 249.755,274.536 229.589,266.703 214,247.5C 211.97,244.774 210.47,241.774 209.5,238.5C 210.054,236.39 210.888,234.39 212,232.5C 225.694,225.144 234.527,213.977 238.5,199C 236.13,197.815 233.797,196.649 231.5,195.5C 210.206,205.308 189.206,204.808 168.5,194C 152.274,181.041 144.274,164.041 144.5,143C 146.087,110.755 162.087,89.7555 192.5,80C 197.775,78.6415 203.109,78.3081 208.5,79C 210.286,79.7845 211.786,80.9512 213,82.5C 213.125,95.3514 216.792,107.018 224,117.5C 226.349,120.017 228.849,122.35 231.5,124.5C 232.833,123.833 234.167,123.167 235.5,122.5C 237.109,106.625 242.609,92.2919 252,79.5C 259.992,70.3127 269.826,64.3127 281.5,61.5 Z M 283.5,77.5 C 280.226,78.88 276.893,80.38 273.5,82C 261.912,90.831 254.912,102.498 252.5,117C 270.206,117.1 283.706,124.6 293,139.5C 299.577,137.071 306.411,135.738 313.5,135.5C 322.429,136.073 331.096,137.573 339.5,140C 342.445,129.383 341.945,118.883 338,108.5C 326.549,86.5835 308.382,76.2501 283.5,77.5 Z M 194.5,95.5 C 167.231,108.372 156.731,129.706 163,159.5C 165.848,169.383 171.682,176.883 180.5,182C 193.558,187.988 206.558,187.988 219.5,182C 211.539,167.045 211.539,152.045 219.5,137C 207.608,125.717 200.608,111.884 198.5,95.5C 197.167,95.5 195.833,95.5 194.5,95.5 Z M 251.5,133.5 C 241.454,135.705 234.621,141.705 231,151.5C 227.139,167.299 232.639,178.466 247.5,185C 267.317,188.247 278.984,179.913 282.5,160C 279.697,142.364 269.364,133.531 251.5,133.5 Z M 293.5,178.5 C 285.237,194.643 271.903,202.643 253.5,202.5C 249.967,218.056 241.967,230.89 229.5,241C 241.026,252.842 255.026,257.509 271.5,255C 290.957,251.382 304.457,240.549 312,222.5C 314.356,204.216 308.189,189.549 293.5,178.5 Z"/></g>
<g><path style="opacity:0.851" fill="#000000" d="M 236.5,452.5 C 243.49,450.838 247.49,453.505 248.5,460.5C 248.181,465.485 245.515,468.152 240.5,468.5C 234.033,467.572 231.533,463.905 233,457.5C 233.997,455.677 235.164,454.01 236.5,452.5 Z"/></g>
<g><path style="opacity:0.849" fill="#000000" d="M 266.5,452.5 C 273.49,450.838 277.49,453.505 278.5,460.5C 278.181,465.485 275.515,468.152 270.5,468.5C 264.033,467.572 261.533,463.905 263,457.5C 263.997,455.677 265.164,454.01 266.5,452.5 Z"/></g>
</svg>
