<?xml version="1.0" encoding="UTF-8"?>
<!DOCTYPE svg PUBLIC "-//W3C//DTD SVG 1.1//EN" "http://www.w3.org/Graphics/SVG/1.1/DTD/svg11.dtd">
<svg xmlns="http://www.w3.org/2000/svg" version="1.1" width="512px" height="512px" style="shape-rendering:geometricPrecision; text-rendering:geometricPrecision; image-rendering:optimizeQuality; fill-rule:evenodd; clip-rule:evenodd" xmlns:xlink="http://www.w3.org/1999/xlink">
<g><path style="opacity:0.944" fill="#000000" d="M 234.5,-0.5 C 248.5,-0.5 262.5,-0.5 276.5,-0.5C 327.814,5.57468 371.981,26.5747 409,62.5C 419.055,75.8251 420.055,89.8251 412,104.5C 399.565,118.787 384.732,121.954 367.5,114C 317.596,65.285 259.929,53.285 194.5,78C 176.393,86.3844 160.393,97.7178 146.5,112C 128.632,122.427 112.798,119.927 99,104.5C 90.874,89.8065 91.874,75.8065 102,62.5C 139.007,26.5809 183.174,5.58095 234.5,-0.5 Z M 254.5,19.5 C 309.653,20.5051 356.487,40.5051 395,79.5C 398.002,91.1618 393.502,96.9951 381.5,97C 375.208,92.3767 369.208,87.3767 363.5,82C 313.193,43.9485 257.86,34.6151 197.5,54C 173.212,63.1388 151.879,76.8054 133.5,95C 125.147,99.2459 118.98,97.0793 115,88.5C 114.348,85.406 114.682,82.406 116,79.5C 154.101,41.0361 200.268,21.0361 254.5,19.5 Z"/></g>
<g><path style="opacity:0.946" fill="#000000" d="M 241.5,90.5 C 280.881,87.3473 314.881,99.1806 343.5,126C 357.34,144.14 356.006,161.14 339.5,177C 320.838,186.729 304.505,183.729 290.5,168C 261.485,150.167 234.818,153.167 210.5,177C 191.258,187.217 175.091,183.717 162,166.5C 155.525,152.16 157.191,138.826 167,126.5C 188.026,106.57 212.86,94.5699 241.5,90.5 Z M 242.5,111.5 C 276.85,108.446 306.017,119.112 330,143.5C 333.532,150.845 331.699,156.678 324.5,161C 321.5,161.667 318.5,161.667 315.5,161C 289.657,136.041 259.657,129.375 225.5,141C 214.819,145.347 205.486,151.681 197.5,160C 187.407,163.787 181.074,160.454 178.5,150C 180.893,143.587 184.893,138.254 190.5,134C 206.1,122.364 223.433,114.864 242.5,111.5 Z"/></g>
<g><path style="opacity:0.943" fill="#000000" d="M 252.5,181.5 C 278.517,183.343 290.183,197.176 287.5,223C 284.164,235.669 276.164,243.669 263.5,247C 235.692,249.191 222.192,236.358 223,208.5C 226.996,192.999 236.83,183.999 252.5,181.5 Z M 253.5,202.5 C 264.863,203.57 269.03,209.57 266,220.5C 261.759,226.472 256.259,227.972 249.5,225C 243.229,220.214 242.063,214.381 246,207.5C 248.17,205.177 250.67,203.51 253.5,202.5 Z"/></g>
<g><path style="opacity:0.987" fill="#000000" d="M 511.5,323.5 C 511.5,372.833 511.5,422.167 511.5,471.5C 505.833,492.5 492.5,505.833 471.5,511.5C 327.5,511.5 183.5,511.5 39.5,511.5C 18.5,505.833 5.16667,492.5 -0.5,471.5C -0.5,422.167 -0.5,372.833 -0.5,323.5C 4.98567,302.515 18.319,289.348 39.5,284C 98.1667,283.333 156.833,283.333 215.5,284C 220.275,287.655 221.775,292.488 220,298.5C 218.833,300.333 217.333,301.833 215.5,303C 160.167,303.333 104.833,303.667 49.5,304C 31.6667,305.833 21.8333,315.667 20,333.5C 19.0367,378.528 19.37,423.528 21,468.5C 25.458,482.32 34.958,489.82 49.5,491C 186.833,491.667 324.167,491.667 461.5,491C 476.042,489.82 485.542,482.32 490,468.5C 491.63,423.528 491.963,378.528 491,333.5C 489.167,315.667 479.333,305.833 461.5,304C 406.167,303.667 350.833,303.333 295.5,303C 290.725,299.345 289.225,294.512 291,288.5C 292.167,286.667 293.667,285.167 295.5,284C 354.167,283.333 412.833,283.333 471.5,284C 492.681,289.348 506.014,302.515 511.5,323.5 Z"/></g>
<g><path style="opacity:0.907" fill="#000000" d="M 250.5,283.5 C 262.324,281.824 267.158,286.824 265,298.5C 261.345,303.275 256.512,304.775 250.5,303C 245.725,299.345 244.225,294.512 246,288.5C 247.366,286.638 248.866,284.972 250.5,283.5 Z"/></g>
<g><path style="opacity:0.949" fill="#000000" d="M 125.5,347.5 C 131.898,346.053 136.731,348.053 140,353.5C 143,368.5 146,383.5 149,398.5C 154.299,383.319 159.299,367.986 164,352.5C 164.465,351.069 165.299,349.903 166.5,349C 172.363,346.33 177.53,347.163 182,351.5C 187.396,367.022 192.396,382.688 197,398.5C 200.658,382.884 204.325,367.217 208,351.5C 213.397,346.604 219.064,346.271 225,350.5C 226.233,352.866 227.066,355.366 227.5,358C 222,385.5 216.5,413 211,440.5C 207.345,447.07 201.845,449.237 194.5,447C 192.376,445.878 190.543,444.378 189,442.5C 183.659,426.454 178.325,410.454 173,394.5C 168.202,410.561 163.202,426.561 158,442.5C 153.86,447.211 148.694,448.711 142.5,447C 140.376,445.878 138.543,444.378 137,442.5C 130.467,414.335 124.634,386.002 119.5,357.5C 119.495,352.863 121.495,349.53 125.5,347.5 Z"/></g>
<g><path style="opacity:0.943" fill="#000000" d="M 256.5,347.5 C 263.445,345.775 268.278,348.108 271,354.5C 271.667,383.167 271.667,411.833 271,440.5C 269.566,445.55 266.233,447.883 261,447.5C 256.268,447.802 252.935,445.802 251,441.5C 250.333,412.167 250.333,382.833 251,353.5C 252.36,350.977 254.193,348.977 256.5,347.5 Z"/></g>
<g><path style="opacity:0.948" fill="#000000" d="M 300.5,347.5 C 313.837,347.333 327.171,347.5 340.5,348C 347.235,351.322 349.069,356.489 346,363.5C 344.833,364.667 343.667,365.833 342.5,367C 333.582,368.414 324.582,368.914 315.5,368.5C 315.5,374.5 315.5,380.5 315.5,386.5C 323.174,386.334 330.841,386.5 338.5,387C 344.109,390.277 345.942,395.11 344,401.5C 343.052,403.57 341.552,405.07 339.5,406C 331.585,407.401 323.585,407.901 315.5,407.5C 315.936,419.243 315.436,430.91 314,442.5C 309.752,447.596 304.585,448.763 298.5,446C 296.951,444.786 295.785,443.286 295,441.5C 294.333,412.167 294.333,382.833 295,353.5C 296.36,350.977 298.193,348.977 300.5,347.5 Z"/></g>
<g><path style="opacity:0.943" fill="#000000" d="M 376.5,347.5 C 383.445,345.775 388.278,348.108 391,354.5C 391.667,383.167 391.667,411.833 391,440.5C 389.566,445.55 386.233,447.883 381,447.5C 376.268,447.802 372.935,445.802 371,441.5C 370.333,412.167 370.333,382.833 371,353.5C 372.36,350.977 374.193,348.977 376.5,347.5 Z"/></g>
</svg>
