<?xml version="1.0" encoding="UTF-8"?>
<!DOCTYPE svg PUBLIC "-//W3C//DTD SVG 1.1//EN" "http://www.w3.org/Graphics/SVG/1.1/DTD/svg11.dtd">
<svg xmlns="http://www.w3.org/2000/svg" version="1.1" width="512px" height="512px" style="shape-rendering:geometricPrecision; text-rendering:geometricPrecision; image-rendering:optimizeQuality; fill-rule:evenodd; clip-rule:evenodd" xmlns:xlink="http://www.w3.org/1999/xlink">
<g><path style="opacity:0.966" fill="#000000" d="M 363.5,-0.5 C 371.833,-0.5 380.167,-0.5 388.5,-0.5C 423.351,7.52054 444.185,29.1872 451,64.5C 451.333,117.833 451.667,171.167 452,224.5C 461.337,233.585 472.504,239.085 485.5,241C 491.231,241.21 496.897,241.876 502.5,243C 506.685,244.688 509.685,247.521 511.5,251.5C 511.5,255.5 511.5,259.5 511.5,263.5C 509.027,266.804 506.027,269.638 502.5,272C 484.653,274.023 467.82,270.857 452,262.5C 451.333,275.833 451.333,289.167 452,302.5C 486.802,333.567 500.135,372.233 492,418.5C 478.088,470.842 444.588,501.842 391.5,511.5C 381.167,511.5 370.833,511.5 360.5,511.5C 307.412,501.842 273.912,470.842 260,418.5C 252.568,379.962 261.235,345.628 286,315.5C 290.366,310.799 295.033,306.466 300,302.5C 300.667,289.167 300.667,275.833 300,262.5C 281.231,271.878 261.398,275.044 240.5,272C 223.522,269.568 208.355,263.068 195,252.5C 170.982,270.545 144.149,276.711 114.5,271C 99.8288,267.913 86.6622,261.746 75,252.5C 55.5119,267.882 33.3452,274.382 8.5,272C 4.97345,269.638 1.97345,266.804 -0.5,263.5C -0.5,259.5 -0.5,255.5 -0.5,251.5C 1.31481,247.521 4.31481,244.688 8.5,243C 31.3445,243.172 50.3445,234.839 65.5,218C 71.8333,214.667 78.1667,214.667 84.5,218C 105.596,241.22 130.93,247.553 160.5,237C 170.489,232.84 178.822,226.506 185.5,218C 191.833,214.667 198.167,214.667 204.5,218C 224.908,240.269 249.574,246.936 278.5,238C 286.56,234.888 293.727,230.388 300,224.5C 300.333,170.833 300.667,117.167 301,63.5C 308.261,28.7408 329.094,7.40749 363.5,-0.5 Z M 367.5,30.5 C 395.661,28.6472 413.161,41.3139 420,68.5C 420.667,120.5 420.667,172.5 420,224.5C 412.026,232.156 402.692,237.489 392,240.5C 391.667,191.167 391.333,141.833 391,92.5C 387.201,82.1841 380.034,78.6841 369.5,82C 365.612,84.2215 362.779,87.3882 361,91.5C 360.667,141.167 360.333,190.833 360,240.5C 349.308,237.489 339.974,232.156 332,224.5C 331.333,172.167 331.333,119.833 332,67.5C 336.236,47.7659 348.069,35.4325 367.5,30.5 Z M 331.5,263.5 C 340.768,267.567 350.434,270.234 360.5,271.5C 360.833,296.509 360.5,321.509 359.5,346.5C 335.01,357.137 324.176,375.804 327,402.5C 333.026,428.362 349.359,442.029 376,443.5C 395.492,442.762 410.159,434.096 420,417.5C 430.759,393.042 426.259,371.875 406.5,354C 402.279,350.722 397.612,348.222 392.5,346.5C 391.5,321.509 391.167,296.509 391.5,271.5C 401.271,270.39 410.604,267.724 419.5,263.5C 420.333,280.157 420.833,296.823 421,313.5C 421.471,315.246 422.138,316.913 423,318.5C 463.453,350.311 473.12,389.644 452,436.5C 431.598,469.179 402.098,483.679 363.5,480C 324.306,471.806 299.806,448.306 290,409.5C 285.186,371.467 298.186,341.134 329,318.5C 329.862,316.913 330.529,315.246 331,313.5C 331.5,296.837 331.667,280.17 331.5,263.5 Z M 375.5,374.5 C 392.588,378.343 397.755,388.343 391,404.5C 380.363,415.366 370.03,415.032 360,403.5C 354.7,388.096 359.866,378.429 375.5,374.5 Z"/></g>
<g><path style="opacity:0.955" fill="#000000" d="M 71.5,38.5 C 86.0086,38.1947 92.1752,45.1947 90,59.5C 86.6057,63.8981 83.6057,68.5648 81,73.5C 77.5578,85.7225 80.8911,95.7225 91,103.5C 107.645,129.402 105.812,153.902 85.5,177C 73.8648,183.344 65.3648,180.511 60,168.5C 59.2989,165.072 59.6323,161.738 61,158.5C 64.3943,154.102 67.3943,149.435 70,144.5C 72.0852,137.911 71.4185,131.578 68,125.5C 46.2631,103.569 42.5964,78.9025 57,51.5C 60.8088,45.849 65.6421,41.5156 71.5,38.5 Z"/></g>
<g><path style="opacity:0.956" fill="#000000" d="M 149.5,38.5 C 164.631,39.1282 170.465,46.7948 167,61.5C 156.406,71.8683 154.74,83.535 162,96.5C 176.443,110.494 182.109,127.494 179,147.5C 176.97,158.895 171.804,168.562 163.5,176.5C 156.661,181.64 149.661,181.806 142.5,177C 137.413,171.232 136.246,164.732 139,157.5C 152.175,142.909 151.508,128.909 137,115.5C 123.971,95.9135 122.638,75.5802 133,54.5C 137.125,47.5383 142.625,42.205 149.5,38.5 Z"/></g>
<g><path style="opacity:0.954" fill="#000000" d="M 227.5,38.5 C 242.121,38.9466 247.954,46.2799 245,60.5C 243.487,63.5244 241.487,66.1911 239,68.5C 233.107,77.4863 233.107,86.4863 239,95.5C 259.76,116.977 263.093,140.977 249,167.5C 246.203,171.299 243.036,174.799 239.5,178C 229.203,182.9 221.37,180.4 216,170.5C 215.333,166.833 215.333,163.167 216,159.5C 219.394,155.102 222.394,150.435 225,145.5C 227.171,139.038 226.838,132.705 224,126.5C 214.773,117.594 208.44,106.927 205,94.5C 200.949,74.1906 206.116,56.6906 220.5,42C 222.925,40.7874 225.259,39.6207 227.5,38.5 Z"/></g>
<g><path style="opacity:0.961" fill="#000000" d="M 172.5,308.5 C 203.041,308.54 220.375,323.706 224.5,354C 223.293,373.096 214.293,387.096 197.5,396C 174.257,404.235 155.09,398.735 140,379.5C 129.054,359.915 130.387,341.248 144,323.5C 151.978,315.429 161.478,310.429 172.5,308.5 Z M 175.5,339.5 C 189.781,340.393 194.948,347.727 191,361.5C 184.512,369.331 177.012,370.498 168.5,365C 160.932,353.772 163.265,345.272 175.5,339.5 Z"/></g>
<g><path style="opacity:0.962" fill="#000000" d="M 67.5,379.5 C 95.6899,378.875 112.857,392.209 119,419.5C 120.095,445.491 108.262,462.325 83.5,470C 60.1695,473.584 43.0029,465.084 32,444.5C 23.0674,419.631 29.5674,399.797 51.5,385C 56.7399,382.534 62.0732,380.7 67.5,379.5 Z M 71.5,410.5 C 86.7013,412.574 91.2013,420.574 85,434.5C 75.2815,442.122 66.9481,440.789 60,430.5C 57.9344,420.285 61.7677,413.618 71.5,410.5 Z"/></g>
</svg>
