<?xml version="1.0" encoding="UTF-8"?>
<!DOCTYPE svg PUBLIC "-//W3C//DTD SVG 1.1//EN" "http://www.w3.org/Graphics/SVG/1.1/DTD/svg11.dtd">
<svg xmlns="http://www.w3.org/2000/svg" version="1.1" width="512px" height="512px" style="shape-rendering:geometricPrecision; text-rendering:geometricPrecision; image-rendering:optimizeQuality; fill-rule:evenodd; clip-rule:evenodd" xmlns:xlink="http://www.w3.org/1999/xlink">
<g><path style="opacity:0.965" fill="#000000" d="M 141.5,41.5 C 217.501,41.3333 293.501,41.5 369.5,42C 401.771,46.271 423.271,63.771 434,94.5C 435.512,99.393 436.512,104.393 437,109.5C 437.167,152.171 437.667,194.837 438.5,237.5C 456.681,250.852 466.848,268.852 469,291.5C 469.667,348.5 469.667,405.5 469,462.5C 467.025,470.477 462.192,475.977 454.5,479C 434.768,479.963 415.102,479.63 395.5,478C 389.508,475.341 385.675,470.841 384,464.5C 383.5,451.838 383.333,439.171 383.5,426.5C 298.167,426.5 212.833,426.5 127.5,426.5C 127.667,439.504 127.5,452.504 127,465.5C 124.406,472.428 119.573,476.928 112.5,479C 93.8333,479.667 75.1667,479.667 56.5,479C 48.8085,475.977 43.9752,470.477 42,462.5C 41.3333,405.5 41.3333,348.5 42,291.5C 44.1519,268.852 54.3186,250.852 72.5,237.5C 73.3333,194.837 73.8333,152.171 74,109.5C 78.0526,80.1185 93.5526,59.2852 120.5,47C 127.452,44.451 134.452,42.6176 141.5,41.5 Z M 148.5,63.5 C 219.834,63.3333 291.167,63.5 362.5,64C 390.051,66.2184 407.218,80.7184 414,107.5C 415.438,146.81 415.938,186.143 415.5,225.5C 397.911,223.638 380.244,222.971 362.5,223.5C 367.352,197.894 360.352,176.394 341.5,159C 334.224,154.032 326.224,150.699 317.5,149C 276.167,148.333 234.833,148.333 193.5,149C 171.395,153.771 156.895,166.938 150,188.5C 148.613,200.113 148.113,211.779 148.5,223.5C 133.83,223.333 119.163,223.5 104.5,224C 101.494,224.332 98.6604,225.166 96,226.5C 95.3333,190.167 95.3333,153.833 96,117.5C 97.3139,91.7 110.147,74.5333 134.5,66C 139.294,65.0979 143.961,64.2645 148.5,63.5 Z M 198.5,170.5 C 236.501,170.333 274.501,170.5 312.5,171C 327.667,174.167 336.833,183.333 340,198.5C 340.5,206.827 340.666,215.16 340.5,223.5C 283.833,223.5 227.167,223.5 170.5,223.5C 170.334,215.16 170.5,206.827 171,198.5C 174.348,183.32 183.514,173.987 198.5,170.5 Z M 109.5,245.5 C 206.834,245.333 304.167,245.5 401.5,246C 429.847,252.018 445.014,269.518 447,298.5C 447.5,312.496 447.667,326.496 447.5,340.5C 319.5,340.5 191.5,340.5 63.5,340.5C 63.3334,326.496 63.5001,312.496 64,298.5C 66.1754,269.503 81.3421,251.836 109.5,245.5 Z M 63.5,362.5 C 191.5,362.5 319.5,362.5 447.5,362.5C 447.5,376.5 447.5,390.5 447.5,404.5C 319.5,404.5 191.5,404.5 63.5,404.5C 63.5,390.5 63.5,376.5 63.5,362.5 Z M 63.5,426.5 C 77.5,426.5 91.5,426.5 105.5,426.5C 105.5,436.833 105.5,447.167 105.5,457.5C 91.5,457.5 77.5,457.5 63.5,457.5C 63.5,447.167 63.5,436.833 63.5,426.5 Z M 405.5,426.5 C 419.5,426.5 433.5,426.5 447.5,426.5C 447.5,436.833 447.5,447.167 447.5,457.5C 433.5,457.5 419.5,457.5 405.5,457.5C 405.5,447.167 405.5,436.833 405.5,426.5 Z"/></g>
</svg>
