<?xml version="1.0" encoding="UTF-8"?>
<!DOCTYPE svg PUBLIC "-//W3C//DTD SVG 1.1//EN" "http://www.w3.org/Graphics/SVG/1.1/DTD/svg11.dtd">
<svg xmlns="http://www.w3.org/2000/svg" version="1.1" width="512px" height="512px" style="shape-rendering:geometricPrecision; text-rendering:geometricPrecision; image-rendering:optimizeQuality; fill-rule:evenodd; clip-rule:evenodd" xmlns:xlink="http://www.w3.org/1999/xlink">
<g><path style="opacity:0.965" fill="#000000" d="M 374.5,-0.5 C 394.833,-0.5 415.167,-0.5 435.5,-0.5C 461.096,5.59129 477.929,21.258 486,46.5C 487.481,106.462 487.981,166.462 487.5,226.5C 499.242,226.362 507.242,231.695 511.5,242.5C 511.5,251.167 511.5,259.833 511.5,268.5C 507.242,279.305 499.242,284.638 487.5,284.5C 487.667,315.835 487.5,347.168 487,378.5C 481.179,413.809 462.679,440.142 431.5,457.5C 435.793,465.913 438.793,474.746 440.5,484C 439.311,497.68 432.311,506.846 419.5,511.5C 415.167,511.5 410.833,511.5 406.5,511.5C 400.139,509.337 394.639,505.67 390,500.5C 385.295,489.592 380.462,478.759 375.5,468C 295.5,467.333 215.5,467.333 135.5,468C 130.865,478.9 126.031,489.733 121,500.5C 116.873,505.798 111.706,509.465 105.5,511.5C 100.5,511.5 95.5,511.5 90.5,511.5C 76.5284,506 70.0284,495.667 71,480.5C 73.7247,472.415 76.3913,464.415 79,456.5C 48.295,439.777 29.9617,414.11 24,379.5C 23.5,347.835 23.3334,316.168 23.5,284.5C 11.7584,284.638 3.75843,279.305 -0.5,268.5C -0.5,259.833 -0.5,251.167 -0.5,242.5C 3.00953,232.665 10.0095,227.331 20.5,226.5C 23.2137,207.978 33.8804,197.812 52.5,196C 64.859,168.905 85.6923,158.739 115,165.5C 130.222,170.555 140.722,180.555 146.5,195.5C 153.199,195.802 159.532,197.469 165.5,200.5C 181.876,186.885 198.876,186.052 216.5,198C 224.49,205.815 228.823,215.315 229.5,226.5C 300.167,226.5 370.833,226.5 441.5,226.5C 441.667,171.832 441.5,117.166 441,62.5C 440.071,52.4485 434.571,46.9485 424.5,46C 411.5,45.3333 398.5,45.3333 385.5,46C 375.333,46.8333 369.833,52.3333 369,62.5C 368.5,73.495 368.333,84.495 368.5,95.5C 372.967,95.1326 377.3,95.6326 381.5,97C 396.475,112.455 404.809,130.955 406.5,152.5C 415.889,153.114 422.389,157.781 426,166.5C 427.58,175.424 427.913,184.424 427,193.5C 426.167,194.333 425.333,195.167 424.5,196C 398.252,197.158 371.918,197.658 345.5,197.5C 319.082,197.658 292.748,197.158 266.5,196C 265.667,195.167 264.833,194.333 264,193.5C 263.333,185.167 263.333,176.833 264,168.5C 267.21,158.483 274.043,153.15 284.5,152.5C 286.191,130.955 294.525,112.455 309.5,97C 313.7,95.6326 318.033,95.1326 322.5,95.5C 322.333,80.8295 322.5,66.1629 323,51.5C 329.681,23.6527 346.848,6.31934 374.5,-0.5 Z M 385.5,13.5 C 401.864,13.1717 418.197,13.6717 434.5,15C 458.112,22.0394 470.945,37.8727 473,62.5C 473.5,117.166 473.667,171.832 473.5,226.5C 467.5,226.5 461.5,226.5 455.5,226.5C 455.667,169.166 455.5,111.832 455,54.5C 451.5,43 444,35.5 432.5,32C 414.167,31.3333 395.833,31.3333 377.5,32C 366,35.5 358.5,43 355,54.5C 354.5,68.1626 354.333,81.8293 354.5,95.5C 348.5,95.5 342.5,95.5 336.5,95.5C 336.203,81.1351 336.703,66.8018 338,52.5C 345.267,28.963 361.101,15.963 385.5,13.5 Z M 317.5,110.5 C 336.17,110.333 354.836,110.5 373.5,111C 384.002,122.841 390.002,136.675 391.5,152.5C 360.833,152.5 330.167,152.5 299.5,152.5C 301.138,136.565 307.138,122.565 317.5,110.5 Z M 286.5,166.5 C 325.835,166.333 365.168,166.5 404.5,167C 407.034,167.516 409.2,168.683 411,170.5C 412.354,174.363 412.854,178.363 412.5,182.5C 367.833,182.5 323.167,182.5 278.5,182.5C 276.507,174.481 279.174,169.148 286.5,166.5 Z M 92.5,178.5 C 113.893,176.771 127.727,186.105 134,206.5C 134.785,208.286 135.951,209.786 137.5,211C 141.091,211.789 144.591,211.622 148,210.5C 149.734,211.249 151.567,211.749 153.5,212C 158.018,214.53 162.518,217.03 167,219.5C 168.627,219.375 170.127,218.875 171.5,218C 182.769,201.986 195.602,200.486 210,213.5C 212.349,217.195 213.849,221.195 214.5,225.5C 154.836,226.667 95.1695,226.833 35.5,226C 37.4043,219.095 41.7376,214.428 48.5,212C 53.2824,211.881 57.9491,211.215 62.5,210C 63.3333,209.167 64.1667,208.333 65,207.5C 68.6184,192.386 77.785,182.719 92.5,178.5 Z M 22.5,240.5 C 177.834,240.333 333.167,240.5 488.5,241C 495.745,242.974 498.745,247.808 497.5,255.5C 498.745,263.192 495.745,268.026 488.5,270C 333.167,270.667 177.833,270.667 22.5,270C 15.2547,268.026 12.2547,263.192 13.5,255.5C 12.3121,247.693 15.3121,242.693 22.5,240.5 Z M 37.5,284.5 C 182.833,284.5 328.167,284.5 473.5,284.5C 473.667,311.169 473.5,337.835 473,364.5C 469.31,412.19 444.143,441.357 397.5,452C 350.184,453.136 302.851,453.636 255.5,453.5C 208.149,453.636 160.816,453.136 113.5,452C 66.8566,441.357 41.6899,412.19 38,364.5C 37.5,337.835 37.3334,311.169 37.5,284.5 Z M 93.5,462.5 C 101.628,465.235 109.962,467.235 118.5,468.5C 115.158,477.348 111.158,485.848 106.5,494C 93.5682,499.623 86.7349,495.456 86,481.5C 88.9963,475.341 91.4963,469.008 93.5,462.5 Z M 416.5,462.5 C 420.257,469.417 423.257,476.75 425.5,484.5C 422.476,496.344 415.476,499.511 404.5,494C 399.842,485.848 395.842,477.348 392.5,468.5C 400.822,467.323 408.822,465.323 416.5,462.5 Z"/></g>
</svg>
