<?xml version="1.0" encoding="UTF-8"?>
<!DOCTYPE svg PUBLIC "-//W3C//DTD SVG 1.1//EN" "http://www.w3.org/Graphics/SVG/1.1/DTD/svg11.dtd">
<svg xmlns="http://www.w3.org/2000/svg" version="1.1" width="512px" height="512px" style="shape-rendering:geometricPrecision; text-rendering:geometricPrecision; image-rendering:optimizeQuality; fill-rule:evenodd; clip-rule:evenodd" xmlns:xlink="http://www.w3.org/1999/xlink">
<g><path style="opacity:0.955" fill="#000000" d="M 511.5,314.5 C 511.5,363.167 511.5,411.833 511.5,460.5C 502.113,486.532 483.78,496.366 456.5,490C 435.62,479.752 426.62,462.918 429.5,439.5C 313.5,439.5 197.5,439.5 81.5,439.5C 84.3795,462.918 75.3795,479.752 54.5,490C 27.2202,496.366 8.88688,486.532 -0.5,460.5C -0.5,411.833 -0.5,363.167 -0.5,314.5C 3.1114,291.17 12.9447,270.837 29,253.5C 29.3333,196.5 29.6667,139.5 30,82.5C 35.8424,45.9909 57.0091,24.8242 93.5,19C 200.833,18.3333 308.167,18.3333 415.5,19C 451.997,24.8301 473.163,45.9967 479,82.5C 479.333,138.833 479.667,195.167 480,251.5C 497.439,269.045 507.939,290.045 511.5,314.5 Z M 95.5,39.5 C 201.501,39.3333 307.501,39.5 413.5,40C 430.322,42.4904 443.155,50.9904 452,65.5C 455.003,71.51 457.003,77.8433 458,84.5C 458.667,134.5 458.667,184.5 458,234.5C 452.527,230.847 446.694,227.847 440.5,225.5C 439.667,211.178 439.167,196.845 439,182.5C 432.842,158.008 417.342,143.508 392.5,139C 358.833,138.333 325.167,138.333 291.5,139C 276.927,141.449 264.927,148.283 255.5,159.5C 247.387,149.57 237.054,143.07 224.5,140C 206.042,138.866 187.542,138.366 169,138.5C 152.167,138.667 135.333,138.833 118.5,139C 95.2747,142.892 80.108,156.059 73,178.5C 71.8955,194.125 71.0622,209.791 70.5,225.5C 63.6401,228.18 57.1401,231.513 51,235.5C 50.0267,183.135 50.36,130.802 52,78.5C 58.8687,56.7892 73.3687,43.7892 95.5,39.5 Z M 120.5,159.5 C 152.835,159.333 185.168,159.5 217.5,160C 234.247,164.414 243.413,175.247 245,192.5C 245.5,201.16 245.666,209.827 245.5,218.5C 194.484,218.194 143.484,218.527 92.5,219.5C 92.08,206.772 92.58,194.106 94,181.5C 99.1464,169.504 107.98,162.17 120.5,159.5 Z M 293.5,159.5 C 325.835,159.333 358.168,159.5 390.5,160C 404.775,162.94 413.942,171.44 418,185.5C 418.5,196.828 418.667,208.162 418.5,219.5C 367.516,218.527 316.516,218.194 265.5,218.5C 265.334,209.827 265.5,201.16 266,192.5C 267.779,175.23 276.946,164.23 293.5,159.5 Z M 100.5,239.5 C 203.834,239.333 307.167,239.5 410.5,240C 451.779,246.61 477.946,270.11 489,310.5C 491.061,326.429 491.894,342.429 491.5,358.5C 456.832,358.333 422.165,358.5 387.5,359C 381.102,362.527 379.269,367.693 382,374.5C 383.637,376.81 385.804,378.31 388.5,379C 422.832,379.5 457.165,379.667 491.5,379.5C 491.5,392.5 491.5,405.5 491.5,418.5C 334.167,418.5 176.833,418.5 19.5,418.5C 19.5,405.5 19.5,392.5 19.5,379.5C 111.167,379.667 202.834,379.5 294.5,379C 301.414,375.324 303.248,369.824 300,362.5C 298.421,360.959 296.587,359.792 294.5,359C 202.834,358.5 111.167,358.333 19.5,358.5C 19.1058,342.429 19.9391,326.429 22,310.5C 33.226,270.099 59.3927,246.432 100.5,239.5 Z M 19.5,439.5 C 33.1667,439.5 46.8333,439.5 60.5,439.5C 62.3396,450.673 59.3396,460.173 51.5,468C 37.9245,474.253 27.7578,470.753 21,457.5C 19.8379,451.555 19.3379,445.555 19.5,439.5 Z M 450.5,439.5 C 464.167,439.5 477.833,439.5 491.5,439.5C 492.256,447.966 490.756,455.966 487,463.5C 474.573,474.82 463.239,473.82 453,460.5C 450.845,453.674 450.012,446.674 450.5,439.5 Z"/></g>
<g><path style="opacity:0.888" fill="#000000" d="M 337.5,358.5 C 350.676,358.518 354.51,364.518 349,376.5C 339.585,381.809 333.419,379.309 330.5,369C 331.074,364.271 333.407,360.771 337.5,358.5 Z"/></g>
</svg>
