<?xml version="1.0" encoding="UTF-8"?>
<!DOCTYPE svg PUBLIC "-//W3C//DTD SVG 1.1//EN" "http://www.w3.org/Graphics/SVG/1.1/DTD/svg11.dtd">
<svg xmlns="http://www.w3.org/2000/svg" version="1.1" width="512px" height="512px" style="shape-rendering:geometricPrecision; text-rendering:geometricPrecision; image-rendering:optimizeQuality; fill-rule:evenodd; clip-rule:evenodd" xmlns:xlink="http://www.w3.org/1999/xlink">
<g><path style="opacity:0.991" fill="#000000" d="M 511.5,80.5 C 511.5,105.5 511.5,130.5 511.5,155.5C 507.633,159.742 502.966,160.575 497.5,158C 496.874,157.25 496.374,156.416 496,155.5C 495.667,132.833 495.333,110.167 495,87.5C 494.5,83 492,80.5 487.5,80C 332.833,79.3333 178.167,79.3333 23.5,80C 19,80.5 16.5,83 16,87.5C 15.3333,172.833 15.3333,258.167 16,343.5C 16.5,348 19,350.5 23.5,351C 131.5,351.333 239.5,351.667 347.5,352C 350.516,353.529 351.849,356.029 351.5,359.5C 351.849,362.971 350.516,365.471 347.5,367C 327.503,367.5 307.503,367.667 287.5,367.5C 287.5,378.167 287.5,388.833 287.5,399.5C 306.018,395.747 321.851,400.414 335,413.5C 342.715,423.024 345.049,433.69 342,445.5C 341.25,446.126 340.416,446.626 339.5,447C 283.5,447.667 227.5,447.667 171.5,447C 170.584,446.626 169.75,446.126 169,445.5C 165.823,422.042 175.656,406.876 198.5,400C 206.827,399.5 215.16,399.334 223.5,399.5C 223.5,388.833 223.5,378.167 223.5,367.5C 154.499,367.667 85.4992,367.5 16.5,367C 8.31563,363.981 2.64896,358.481 -0.5,350.5C -0.5,260.5 -0.5,170.5 -0.5,80.5C 2.64896,72.5191 8.31563,67.0191 16.5,64C 175.833,63.3333 335.167,63.3333 494.5,64C 502.684,67.0191 508.351,72.5191 511.5,80.5 Z M 239.5,367.5 C 250.167,367.5 260.833,367.5 271.5,367.5C 271.5,378.167 271.5,388.833 271.5,399.5C 260.833,399.5 250.167,399.5 239.5,399.5C 239.5,388.833 239.5,378.167 239.5,367.5 Z M 207.5,415.5 C 239.502,415.333 271.502,415.5 303.5,416C 313.807,416.641 321.141,421.641 325.5,431C 278.833,431.667 232.167,431.667 185.5,431C 190.013,421.63 197.346,416.463 207.5,415.5 Z"/></g>
<g><path style="opacity:0.991" fill="#000000" d="M 511.5,192.5 C 511.5,271.833 511.5,351.167 511.5,430.5C 508.351,438.481 502.684,443.981 494.5,447C 457.833,447.667 421.167,447.667 384.5,447C 376.333,444.167 370.833,438.667 368,430.5C 367.333,351.167 367.333,271.833 368,192.5C 370.833,184.333 376.333,178.833 384.5,176C 421.167,175.333 457.833,175.333 494.5,176C 502.684,179.019 508.351,184.519 511.5,192.5 Z M 391.5,191.5 C 423.502,191.333 455.502,191.5 487.5,192C 490.494,192.406 492.661,193.906 494,196.5C 495.657,272.11 495.991,347.776 495,423.5C 494.594,426.494 493.094,428.661 490.5,430C 457.561,431.645 424.561,431.979 391.5,431C 388.506,430.594 386.339,429.094 385,426.5C 383.343,350.89 383.009,275.224 384,199.5C 384.68,194.989 387.18,192.323 391.5,191.5 Z M 433.5,320.5 C 453.958,319.457 463.458,329.124 462,349.5C 454.814,366.009 442.98,370.509 426.5,363C 415.836,353.909 413.669,343.076 420,330.5C 423.579,325.731 428.079,322.397 433.5,320.5 Z"/></g>
<g><path style="opacity:0.892" fill="#000000" d="M 403.5,207.5 C 414.86,206.71 418.193,211.543 413.5,222C 402.964,225.997 398.464,222.497 400,211.5C 400.69,209.65 401.856,208.316 403.5,207.5 Z"/></g>
<g><path style="opacity:0.892" fill="#000000" d="M 435.5,207.5 C 446.86,206.71 450.193,211.543 445.5,222C 434.964,225.997 430.464,222.497 432,211.5C 432.69,209.65 433.856,208.316 435.5,207.5 Z"/></g>
<g><path style="opacity:0.892" fill="#000000" d="M 467.5,207.5 C 478.86,206.71 482.193,211.543 477.5,222C 466.964,225.997 462.464,222.497 464,211.5C 464.69,209.65 465.856,208.316 467.5,207.5 Z"/></g>
<g><path style="opacity:0.892" fill="#000000" d="M 403.5,239.5 C 414.86,238.71 418.193,243.543 413.5,254C 402.964,257.997 398.464,254.497 400,243.5C 400.69,241.65 401.856,240.316 403.5,239.5 Z"/></g>
<g><path style="opacity:0.892" fill="#000000" d="M 435.5,239.5 C 446.86,238.71 450.193,243.543 445.5,254C 434.964,257.997 430.464,254.497 432,243.5C 432.69,241.65 433.856,240.316 435.5,239.5 Z"/></g>
<g><path style="opacity:0.892" fill="#000000" d="M 467.5,239.5 C 478.86,238.71 482.193,243.543 477.5,254C 466.964,257.997 462.464,254.497 464,243.5C 464.69,241.65 465.856,240.316 467.5,239.5 Z"/></g>
<g><path style="opacity:0.892" fill="#000000" d="M 403.5,271.5 C 414.86,270.71 418.193,275.543 413.5,286C 402.964,289.997 398.464,286.497 400,275.5C 400.69,273.65 401.856,272.316 403.5,271.5 Z"/></g>
<g><path style="opacity:0.892" fill="#000000" d="M 435.5,271.5 C 446.86,270.71 450.193,275.543 445.5,286C 434.964,289.997 430.464,286.497 432,275.5C 432.69,273.65 433.856,272.316 435.5,271.5 Z"/></g>
<g><path style="opacity:0.892" fill="#000000" d="M 467.5,271.5 C 478.86,270.71 482.193,275.543 477.5,286C 466.964,289.997 462.464,286.497 464,275.5C 464.69,273.65 465.856,272.316 467.5,271.5 Z"/></g>
<g><path style="opacity:0.928" fill="#000000" d="M 430.5,303.5 C 453.329,300.547 469.163,309.547 478,330.5C 483.718,354.897 475.218,372.064 452.5,382C 428.103,387.718 410.936,379.218 401,356.5C 395.424,329.977 405.257,312.31 430.5,303.5 Z M 433.5,320.5 C 428.079,322.397 423.579,325.731 420,330.5C 413.669,343.076 415.836,353.909 426.5,363C 442.98,370.509 454.814,366.009 462,349.5C 463.458,329.124 453.958,319.457 433.5,320.5 Z"/></g>
<g><path style="opacity:0.892" fill="#000000" d="M 403.5,399.5 C 414.86,398.71 418.193,403.543 413.5,414C 402.964,417.997 398.464,414.497 400,403.5C 400.69,401.65 401.856,400.316 403.5,399.5 Z"/></g>
<g><path style="opacity:0.892" fill="#000000" d="M 435.5,399.5 C 446.86,398.71 450.193,403.543 445.5,414C 434.964,417.997 430.464,414.497 432,403.5C 432.69,401.65 433.856,400.316 435.5,399.5 Z"/></g>
<g><path style="opacity:0.892" fill="#000000" d="M 467.5,399.5 C 478.86,398.71 482.193,403.543 477.5,414C 466.964,417.997 462.464,414.497 464,403.5C 464.69,401.65 465.856,400.316 467.5,399.5 Z"/></g>
</svg>
