<?xml version="1.0" encoding="UTF-8"?>
<!DOCTYPE svg PUBLIC "-//W3C//DTD SVG 1.1//EN" "http://www.w3.org/Graphics/SVG/1.1/DTD/svg11.dtd">
<svg xmlns="http://www.w3.org/2000/svg" version="1.1" width="512px" height="512px" style="shape-rendering:geometricPrecision; text-rendering:geometricPrecision; image-rendering:optimizeQuality; fill-rule:evenodd; clip-rule:evenodd" xmlns:xlink="http://www.w3.org/1999/xlink">
<g><path style="opacity:0.955" fill="#000000" d="M 73.5,-0.5 C 194.833,-0.5 316.167,-0.5 437.5,-0.5C 453.817,4.31811 464.317,14.9848 469,31.5C 470.154,106.144 470.654,180.81 470.5,255.5C 470.654,330.19 470.154,404.856 469,479.5C 464.317,496.015 453.817,506.682 437.5,511.5C 316.167,511.5 194.833,511.5 73.5,511.5C 53.7233,505.546 42.89,492.213 41,471.5C 40.3333,347.833 40.3333,224.167 41,100.5C 42.1749,93.9239 46.0082,91.7573 52.5,94C 53.9308,94.4652 55.0975,95.2986 56,96.5C 56.5,168.833 56.6667,241.166 56.5,313.5C 166.501,313.333 276.501,313.5 386.5,314C 391.738,317.274 392.904,321.774 390,327.5C 389.25,328.126 388.416,328.626 387.5,329C 277.167,329.5 166.834,329.667 56.5,329.5C 56.3333,376.501 56.5,423.501 57,470.5C 58.8333,485.667 67.3333,494.167 82.5,496C 197.833,496.667 313.167,496.667 428.5,496C 443.667,494.167 452.167,485.667 454,470.5C 454.5,423.501 454.667,376.501 454.5,329.5C 443.162,329.667 431.828,329.5 420.5,329C 417.484,327.471 416.151,324.971 416.5,321.5C 416.336,317.823 418.003,315.323 421.5,314C 432.495,313.5 443.495,313.333 454.5,313.5C 454.667,222.499 454.5,131.499 454,40.5C 452.167,25.3333 443.667,16.8333 428.5,15C 313.167,14.3333 197.833,14.3333 82.5,15C 67.3333,16.8333 58.8333,25.3333 57,40.5C 56.6667,48.8333 56.3333,57.1667 56,65.5C 51.3333,69.5 46.6667,69.5 42,65.5C 39.6732,51.6894 40.3399,38.0227 44,24.5C 50.0886,11.5655 59.922,3.23215 73.5,-0.5 Z"/></g>
<g><path style="opacity:0.927" fill="#000000" d="M 139.5,58.5 C 163.618,56.6256 177.285,67.6256 180.5,91.5C 178.429,111.738 167.262,122.738 147,124.5C 123.246,121.076 112.579,107.41 115,83.5C 118.683,70.6514 126.85,62.3181 139.5,58.5 Z M 142.5,74.5 C 154.814,73.3093 162.147,78.8093 164.5,91C 160.67,106.08 151.67,110.747 137.5,105C 128.532,96.3221 128.199,87.3221 136.5,78C 138.432,76.5415 140.432,75.3748 142.5,74.5 Z"/></g>
<g><path style="opacity:0.928" fill="#000000" d="M 357.5,58.5 C 381.604,56.6085 395.27,67.6085 398.5,91.5C 395.776,111.057 384.61,122.057 365,124.5C 341.246,121.076 330.579,107.41 333,83.5C 336.674,70.6601 344.841,62.3267 357.5,58.5 Z M 360.5,74.5 C 372.839,73.3407 380.173,78.8407 382.5,91C 378.708,106.062 369.708,110.728 355.5,105C 348.017,98.3858 346.517,90.5524 351,81.5C 353.529,78.1151 356.696,75.7818 360.5,74.5 Z"/></g>
<g><path style="opacity:0.931" fill="#000000" d="M 251.5,83.5 C 256.742,82.2706 260.575,83.9372 263,88.5C 263.667,141.167 263.667,193.833 263,246.5C 259.749,250.917 255.583,252.083 250.5,250C 249.299,249.097 248.465,247.931 248,246.5C 247.333,193.833 247.333,141.167 248,88.5C 248.997,86.6769 250.164,85.0103 251.5,83.5 Z"/></g>
<g><path style="opacity:0.929" fill="#000000" d="M 109.5,128.5 C 125.523,126.081 136.023,132.414 141,147.5C 141.667,184.833 141.667,222.167 141,259.5C 140.5,261.333 139.333,262.5 137.5,263C 132.269,264.724 128.435,263.224 126,258.5C 125.988,221.749 125.321,185.082 124,148.5C 119,143.167 114,143.167 109,148.5C 107.711,159.403 107.044,170.403 107,181.5C 103.726,186.738 99.2262,187.904 93.5,185C 92.8742,184.25 92.3742,183.416 92,182.5C 91.3333,170.833 91.3333,159.167 92,147.5C 94.2506,137.753 100.084,131.42 109.5,128.5 Z"/></g>
<g><path style="opacity:0.931" fill="#000000" d="M 170.5,128.5 C 185.983,126.149 196.483,132.149 202,146.5C 202.667,158.5 202.667,170.5 202,182.5C 197.726,188.446 193.059,188.779 188,183.5C 187.022,171.474 186.022,159.474 185,147.5C 179.719,143.301 174.719,143.634 170,148.5C 168.685,185.44 168.019,222.44 168,259.5C 166.471,262.516 163.971,263.849 160.5,263.5C 156.823,263.664 154.323,261.997 153,258.5C 152.333,221.833 152.333,185.167 153,148.5C 155.515,138.824 161.349,132.158 170.5,128.5 Z"/></g>
<g><path style="opacity:0.928" fill="#000000" d="M 326.5,129.5 C 338.508,127.001 348.341,130.335 356,139.5C 359.034,144.806 360.034,150.473 359,156.5C 353.304,187.145 347.804,217.812 342.5,248.5C 357.5,248.5 372.5,248.5 387.5,248.5C 382.325,217.458 376.825,186.458 371,155.5C 369.597,142.564 375.097,134.064 387.5,130C 412.659,127.667 423.326,139.167 419.5,164.5C 419.333,170.5 419.167,176.5 419,182.5C 418.5,184.333 417.333,185.5 415.5,186C 410.269,187.724 406.435,186.224 404,181.5C 403.957,170.07 403.29,158.737 402,147.5C 395.029,142.582 389.862,144.082 386.5,152C 392.794,185.138 398.961,218.305 405,251.5C 407.13,258.077 404.964,262.244 398.5,264C 376.167,264.667 353.833,264.667 331.5,264C 327.164,262.83 324.831,259.996 324.5,255.5C 331.108,220.516 337.275,185.516 343,150.5C 340.006,144.635 335.506,143.135 329.5,146C 328.299,146.903 327.465,148.069 327,149.5C 326.958,161.263 326.292,172.93 325,184.5C 321.744,186.429 318.244,186.929 314.5,186C 312.667,185.5 311.5,184.333 311,182.5C 310.333,170.5 310.333,158.5 311,146.5C 313.256,138.081 318.423,132.415 326.5,129.5 Z"/></g>
<g><path style="opacity:0.932" fill="#000000" d="M 150.5,360.5 C 155.28,359.641 158.78,361.308 161,365.5C 165.297,387.323 169.963,408.989 175,430.5C 180.667,412.167 186.333,393.833 192,375.5C 193.26,370.708 195.094,366.208 197.5,362C 202.82,359.298 206.987,360.465 210,365.5C 216.802,387.572 223.802,409.572 231,431.5C 235.264,408.676 240.098,386.009 245.5,363.5C 249.705,359.554 253.872,359.554 258,363.5C 259.483,366.702 259.817,370.036 259,373.5C 253.333,401.833 247.667,430.167 242,458.5C 239.832,465.836 234.999,468.336 227.5,466C 226.069,465.535 224.903,464.701 224,463.5C 216.6,441.3 209.6,418.966 203,396.5C 195.802,418.428 188.802,440.428 182,462.5C 176.737,467.364 171.237,467.697 165.5,463.5C 164.066,461.78 163.233,459.78 163,457.5C 157.295,427.976 151.462,398.476 145.5,369C 145.605,365.121 147.272,362.288 150.5,360.5 Z"/></g>
<g><path style="opacity:0.921" fill="#000000" d="M 319.5,360.5 C 334.151,359.119 347.318,362.786 359,371.5C 361.507,378.137 359.34,382.471 352.5,384.5C 347.283,382.135 341.95,379.968 336.5,378C 315.955,374.189 301.122,381.689 292,400.5C 286.621,418.696 291.454,433.529 306.5,445C 323.098,454.032 338.098,452.032 351.5,439C 359.619,437.125 363.452,440.292 363,448.5C 356.658,457.933 347.825,463.766 336.5,466C 311.909,469.118 293.076,460.285 280,439.5C 267.723,411.44 273.557,387.94 297.5,369C 304.461,364.852 311.795,362.019 319.5,360.5 Z"/></g>
</svg>
